Genre:Animation | Comedy | Family
Language:English
 
http://www.imdb.com/title/tt0472181/

Source:Die.Schluempfe.TS.MD.German/IMAGINE Thanks!

Format : MPEG-4
Format profile : Base Media
Codec ID : isom
File size : 1.12 GiB
Duration : 1h 32mn
Overall bit rate : 1 732 Kbps

Video
ID : 1
Format : AVC
Format/Info : Advanced Video Codec
Format profile : High@L4.1
Format settings, CABAC : Yes
Format settings, ReFrames : 3 frames
Codec ID : avc1
Codec ID/Info : Advanced Video Coding
Duration : 1h 32mn
Bit rate mode : Variable
Bit rate : 1 500 Kbps
Maximum bit rate : 7 833 Kbps
Width : 720 pixels
Height : 368 pixels
Display aspect ratio : 1.957
Frame rate mode : Constant
Frame rate : 25.000 fps
Color space : YUV
Chroma subsampling : 4:2:0
Bit depth : 8 bits
Scan type : Progressive
Bits/(Pixel*Frame) : 0.226
Stream size : 997 MiB (87%)
Writing library : x264

Audio
ID : 2
Format : AAC
Format/Info : Advanced Audio Codec
Format version : Version 4
Format profile : LC
Format settings, SBR : No
Codec ID : 40
Duration : 1h 32mn
Bit rate mode : Variable
Bit rate : 224 Kbps
Maximum bit rate : 299 Kbps
Channel(s) : 2 channels
Channel positions : Front: L R
Sampling rate : 44.1 KHz
Stream size : 149 MiB (13%)


Plot:
When the evil wizard Gargamel chases the tiny blue Smurfs out of their village, they tumble from their magical world and into ours.
 
http://www.pix2links.com/images/99215348122163429485.png
 
http://www.pix2links.com/images/23098087692215623746.png
 
http://www.pix2links.com/images/58880195195066205647.png
 
http://www.pix2links.com/images/55070104290031759479.png
 
http://www.pix2links.com/images/13424274846102366034.png
